<svg id="SvgjsSvg1001" width="288" height="288" xmlns="http://www.w3.org/2000/svg" version="1.1" xmlns:xlink="http://www.w3.org/1999/xlink" xmlns:svgjs="http://svgjs.com/svgjs"><defs id="SvgjsDefs1002"></defs><g id="SvgjsG1008" transform="matrix(1,0,0,1,0,0)"><svg xmlns="http://www.w3.org/2000/svg" enable-background="new 0 0 512 512" viewBox="0 0 512 512" width="288" height="288"><linearGradient id="a" x1="38.6" x2="430.987" y1="38.633" y2="431.021" gradientTransform="matrix(1 0 0 -1 0 512)" gradientUnits="userSpaceOnUse"><stop offset="0" stop-color="#66ccff" class="stopColorff984c svgShape"></stop><stop offset="1" stop-color="#6666ff" class="stopColorffd746 svgShape"></stop></linearGradient><path fill="url(#a)" d="M139.33,98.718h-8.192l4.096-11.637L139.33,98.718z M449.848,99.842L351.87,1.864c-1.397-1.397-2.909-1.862-4.073-1.862c-1.047,0-1.978,0.233-2.443,0.466c-1.047,0.466-3.724,1.978-3.724,5.48v80.524c0,13.033,10.589,23.611,23.622,23.611h80.524c3.491,0,5.004-2.56,5.469-3.607C451.71,105.324,452.524,102.415,449.848,99.842 M319.047-0.001c-0.465,1.978-0.698,3.968-0.698,5.946v80.524c0,25.832,21.061,46.883,46.906,46.883h80.524c2.084,0,4.073-0.222,5.922-0.582v350.267c0,15.942-13.021,28.963-28.963,28.963H89.228c-16.047,0-28.963-13.021-28.963-28.963V28.985c0-15.953,12.916-28.986,28.963-28.986H319.047 M193.525,67.56c-6.424,0-11.637,5.202-11.637,11.637c0,6.435,5.213,11.637,11.637,11.637h15.547v15.558c0,6.435,5.213,11.637,11.637,11.637c6.435,0,11.637-5.202,11.637-11.637V90.833h15.558c6.424,0,11.637-5.202,11.637-11.637c0-6.435-5.213-11.637-11.637-11.637h-15.558V52.002c0-6.435-5.202-11.637-11.637-11.637c-6.424,0-11.637,5.202-11.637,11.637V67.56L193.525,67.56 M95.651,129.489c-2.129,6.074,1.059,12.707,7.122,14.848c1.268,0.454,2.584,0.651,3.863,0.651c4.794,0,9.286-2.991,10.973-7.773l5.353-15.22h24.54l5.364,15.22c2.118,6.063,8.786,9.286,14.837,7.122c6.063-2.142,9.251-8.773,7.11-14.848l-28.602-81.35c-1.64-4.654-6.039-7.773-10.973-7.773c-4.946,0-9.345,3.118-10.985,7.773L95.651,129.489 M405.354,437.714c6.435,0,11.637-5.213,11.637-11.637c0-6.435-5.202-11.637-11.637-11.637H106.636c-6.435,0-11.637,5.202-11.637,11.637c0,6.424,5.202,11.637,11.637,11.637H405.354 M106.636,316.858c-6.435,0-11.637,5.202-11.637,11.637c0,6.435,5.202,11.637,11.637,11.637h298.719c6.435,0,11.637-5.202,11.637-11.637c0-6.435-5.202-11.637-11.637-11.637H106.636z M106.636,219.287c-6.435,0-11.637,5.202-11.637,11.637s5.202,11.637,11.637,11.637h223.78c6.422,0,11.637-5.202,11.637-11.637s-5.213-11.637-11.637-11.637H106.636z"></path></svg></g></svg>